<svg width="80" height="40" viewBox="0 0 80 40" fill="none" xmlns="http://www.w3.org/2000/svg">
<path d="M44.2895 28.1039C44.1956 28.1039 44.1158 28.0661 44.05 28.0047C43.9843 27.9386 43.9514 27.8583 43.9514 27.7592C43.9514 27.6647 43.9843 27.5844 44.05 27.5183C44.1158 27.4522 44.1956 27.4191 44.2895 27.4191H48.6987C48.802 27.4191 48.8912 27.4569 48.9711 27.5325C49.0509 27.6128 49.0885 27.7025 49.0838 27.8064C49.0462 29.2137 48.6987 30.2857 48.0272 31.0366C47.3605 31.7828 46.3509 32.2503 44.9985 32.4392C44.9046 32.4534 44.8154 32.4298 44.7403 32.3731C44.6651 32.3164 44.6182 32.2409 44.5994 32.1464C44.5806 32.0614 44.5994 31.9764 44.6558 31.9008C44.7121 31.8253 44.7872 31.7828 44.8765 31.7686C45.994 31.608 46.8298 31.2444 47.3792 30.673C47.9286 30.1063 48.2385 29.2656 48.3137 28.1558C48.3137 28.1181 48.2949 28.1039 48.2573 28.1039H44.2895Z" fill="white"/>
<path d="M52.6713 32.2739C52.5867 32.2739 52.5163 32.2456 52.4553 32.1936C52.3942 32.137 52.366 32.0661 52.366 31.9764C52.366 31.8914 52.3942 31.8205 52.4553 31.7591C52.5116 31.6978 52.5867 31.6694 52.6713 31.6694H55.0942C55.1365 31.6694 55.1553 31.6505 55.1553 31.6127L55.3337 29.1098C55.3337 29.072 55.3149 29.0578 55.282 29.0578H53.2394C53.1549 29.0578 53.0798 29.0248 53.0234 28.9681C52.9624 28.9114 52.9342 28.8359 52.9342 28.7462C52.9342 28.6612 52.9624 28.5903 53.0234 28.5336C53.0798 28.477 53.1549 28.4486 53.2394 28.4486H55.7281C55.8314 28.4486 55.9207 28.4864 55.9911 28.562C56.0615 28.6375 56.0944 28.7273 56.0897 28.8359L55.9113 31.6175C55.9113 31.6552 55.93 31.6741 55.9676 31.6741H56.6626C56.7518 31.6741 56.8222 31.7025 56.8786 31.7639C56.9396 31.8253 56.9678 31.8961 56.9678 31.9811C56.9678 32.0708 56.9396 32.1417 56.8786 32.1983C56.8222 32.255 56.7471 32.2786 56.6626 32.2786H52.6713V32.2739Z" fill="white"/>
<path d="M60.3909 30.1676C60.2923 30.1676 60.2078 30.1346 60.1421 30.0637C60.0716 30.0023 60.0434 29.9126 60.0434 29.8134C60.0434 29.7096 60.0763 29.6245 60.1421 29.5584C60.2078 29.4923 60.2923 29.4593 60.3909 29.4593H65.265C65.3636 29.4593 65.4482 29.4923 65.5139 29.5584C65.5843 29.6293 65.6172 29.7096 65.6172 29.8134C65.6172 29.9126 65.5843 29.9976 65.5139 30.0637C65.4435 30.1346 65.3636 30.1676 65.265 30.1676H60.3909Z" fill="white"/>
<path d="M69.7259 32.5761C69.6555 32.647 69.5662 32.68 69.4629 32.68C69.3596 32.68 69.2704 32.6423 69.2 32.5761C69.1249 32.5006 69.0873 32.4109 69.0873 32.307V27.4475C69.0873 27.3436 69.1249 27.2538 69.2 27.183C69.2704 27.1122 69.3596 27.0744 69.4629 27.0744C69.5709 27.0744 69.6555 27.1122 69.7259 27.183C69.801 27.2586 69.8339 27.3483 69.8339 27.4475V28.9728C69.8339 29.0106 69.8527 29.0342 69.8809 29.039C71.0172 29.3176 72.1395 29.6576 73.257 30.0543C73.3463 30.0874 73.4167 30.1488 73.459 30.2432C73.5012 30.3329 73.5106 30.4227 73.4777 30.5218C73.4449 30.6116 73.3885 30.6824 73.2993 30.7249C73.2101 30.7721 73.1209 30.7721 73.0317 30.7391C71.9892 30.3613 70.9421 30.0401 69.8903 29.7757C69.8527 29.7662 69.8339 29.7804 69.8339 29.8182V32.3022C69.8386 32.4109 69.801 32.5006 69.7259 32.5761ZM71.4915 27.3436C71.576 27.2963 71.6652 27.2916 71.7544 27.3199C71.839 27.3436 71.9094 27.405 71.961 27.4852C72.1676 27.8536 72.2803 28.0567 72.3085 28.1086C72.3555 28.1889 72.3602 28.2786 72.3273 28.3683C72.2944 28.4581 72.2381 28.5195 72.1583 28.562C72.0737 28.6045 71.9845 28.6092 71.8953 28.5761C71.8108 28.5431 71.7403 28.4864 71.6981 28.4061C71.6934 28.3967 71.6464 28.3117 71.5619 28.1511C71.4774 27.9905 71.407 27.8772 71.3647 27.7969C71.3177 27.7166 71.3036 27.6364 71.3318 27.5466C71.3553 27.4522 71.407 27.3861 71.4915 27.3436ZM72.379 27.2633C72.4071 27.1735 72.4635 27.1074 72.548 27.0602C72.6325 27.013 72.7264 27.0035 72.8157 27.0319C72.9096 27.0602 72.9753 27.1216 73.0223 27.2066C73.2242 27.5702 73.3416 27.778 73.3697 27.83C73.412 27.9103 73.4261 27.9953 73.3979 28.0897C73.3697 28.1842 73.3134 28.2503 73.2289 28.2881C73.1443 28.3306 73.0551 28.3353 72.9612 28.3117C72.872 28.2833 72.8016 28.2267 72.7593 28.1417L72.4118 27.523C72.3649 27.438 72.3555 27.353 72.379 27.2633Z" fill="white"/>
<path d="M79.9484 0.854782C79.8451 0.524203 79.5915 0.264463 79.2441 0.118064C79.0609 0.0377804 78.8637 0 78.6571 0C78.1641 0 77.6851 0.226682 77.4081 0.585596C77.1686 0.897285 73.3181 5.95986 70.4913 13.0248C70.1908 12.9823 69.8856 12.9634 69.5992 12.9634C68.8338 12.9634 68.0872 13.0956 67.3734 13.3554C66.5423 13.6623 65.7675 14.1535 65.0726 14.8241L64.927 14.9658C64.387 15.4664 62.9595 15.3247 62.7153 13.8418C62.6167 13.2515 62.0579 12.8406 61.3442 12.8406C60.7103 12.8548 60.1374 13.2373 59.9543 13.7662C59.2265 15.8347 57.0618 20.0614 54.8689 20.2456C54.7092 19.5655 55.4558 16.9492 57.0101 14.1251C57.1885 13.804 57.2026 13.4309 57.0524 13.1145C56.9021 12.7934 56.6016 12.5478 56.2165 12.4439C56.0851 12.4109 55.9489 12.392 55.808 12.392C55.2351 12.392 54.7045 12.6848 54.4557 13.1381L54.1927 13.6246C52.5117 16.9681 49.9056 20.2503 48.9289 20.2503C48.8396 20.2503 48.788 20.2456 48.7598 20.2361C48.4311 19.6553 49.4078 16.8784 51.1452 14.2007C51.3518 13.8843 51.3941 13.5112 51.2579 13.1759C51.1264 12.8453 50.8541 12.595 50.4831 12.4723C50.3282 12.4203 50.1638 12.392 49.9901 12.392C49.4595 12.392 48.9476 12.6564 48.68 13.0626C48.68 13.0626 47.1962 15.2302 45.7076 16.1464H45.7123C45.2334 16.4203 44.7356 16.7225 44.2191 17.0626C44.36 16.7509 44.4633 16.5336 44.5056 16.4298C45.1066 15.4286 45.4916 14.673 45.5621 14.5313C45.7264 14.2102 45.7264 13.8465 45.5668 13.5301C45.4024 13.209 45.0878 12.9728 44.7075 12.8831C44.5854 12.8548 44.4633 12.8359 44.3412 12.8359C43.7542 12.8359 43.2049 13.1523 42.9654 13.6246C42.7071 14.1346 42.4207 14.6635 42.1108 15.1972C42.0544 15.2633 41.984 15.3577 41.9323 15.4805L41.9182 15.5183C39.9742 18.7485 38.2556 20.2503 37.7062 20.2503C37.617 20.2503 37.5701 20.2456 37.5372 20.2361C37.2085 19.6553 38.1805 16.8784 39.9226 14.196C40.1245 13.8796 40.1668 13.5065 40.0353 13.1712C39.9038 12.8406 39.6315 12.5903 39.2605 12.4675C39.1055 12.4156 38.9365 12.3872 38.7628 12.3872C38.2368 12.3872 37.7203 12.6517 37.4527 13.0578C37.2695 13.3412 37.1146 13.6009 36.9878 13.8418C36.8751 13.9126 36.7765 13.9929 36.692 14.0874C36.0815 14.7485 34.0201 15.1216 33.8041 13.8371C33.7102 13.2468 33.1467 12.8312 32.433 12.8312C31.7991 12.8453 31.2262 13.2279 31.0431 13.7568C30.32 15.8253 28.1506 20.0567 25.9577 20.2361C25.798 19.5702 26.493 17.039 28.1036 14.111C28.282 13.7898 28.2961 13.4215 28.1412 13.1004C27.9909 12.7839 27.6904 12.5384 27.31 12.4345C27.1786 12.4014 27.0424 12.3825 26.9015 12.3825C26.3286 12.3825 25.798 12.6753 25.5492 13.1287L25.2815 13.6151C23.4925 17.1854 20.8911 20.2408 20.0177 20.2408C19.9285 20.2408 19.8768 20.2314 19.8486 20.2267C19.534 19.6647 20.4309 17.0626 22.0556 14.4699C22.234 14.3282 22.3702 14.1393 22.4453 13.9126C22.5674 13.549 22.5298 13.1476 22.3326 12.7839C22.0556 12.2597 21.5156 11.9197 20.9474 11.9197C20.7502 11.9197 20.5671 11.9622 20.3933 12.0425C18.454 12.9398 16.5288 13.464 14.6693 13.5962L14.2608 13.6246L16.0357 8.40142C16.0968 8.21724 17.5665 3.93388 20.1538 3.93388C20.3323 3.93388 20.5154 3.95277 20.6985 3.99528C21.4123 4.16057 22.281 4.75561 22.3561 6.65407C22.3561 6.66824 22.4078 7.98111 23.0933 8.08028C23.3187 8.11334 23.5817 8.1464 23.8587 8.1464C24.9152 8.1464 25.5257 7.63636 25.7652 6.58323C25.8872 4.17473 25.2815 1.19481 21.6799 0.661157C21.3371 0.609209 20.9991 0.585596 20.6657 0.585596C15.059 0.585596 12.8286 7.93861 12.8051 8.02833L11.002 13.3318L10.7625 13.2704C8.02495 12.5903 6.48007 11.1499 6.41433 11.0885C6.11851 10.8052 5.73816 10.6494 5.34372 10.6494C4.98685 10.6494 4.65815 10.7863 4.42337 11.0272C4.1792 11.2822 4.05711 11.6316 4.08059 12.0047C4.10407 12.3872 4.27781 12.7509 4.56424 13.0342C4.64407 13.1098 6.52703 14.9138 9.83747 15.8819L10.1098 15.9622L8.73399 20.0094C6.63972 26.2196 5.16529 29.2137 4.12285 30.5643C2.54041 32.6187 1.15988 30.8902 0.957971 30.7627C-0.380293 29.9315 0.02823 32.0047 0.178491 32.34C0.328752 32.6753 1.61067 35.66 4.52668 34.451C7.92164 33.0484 12.622 18.4793 12.622 18.4793L13.3076 16.4628L13.6316 16.477C13.7583 16.4864 13.8898 16.4911 14.0213 16.4911C15.3596 16.4911 16.7495 16.3022 18.1488 15.9481C17.2097 17.9221 16.4584 20.3022 17.4351 21.6623C17.7872 22.1535 18.4916 22.7344 19.858 22.7344C20.9709 22.7344 22.0885 22.2054 23.2671 21.1145C23.3516 21.3932 23.4737 21.6387 23.638 21.8418C24.0935 22.4227 24.8025 22.7344 25.6806 22.7344C28.9159 22.7344 31.2168 19.5514 32.4189 17.3554C32.8462 17.719 33.358 17.9362 33.9403 18.0118C34.0812 18.0307 34.222 18.0401 34.3582 18.0401C34.5695 18.0401 34.7855 18.0212 35.0062 17.9787C34.4897 19.6175 34.5273 20.8548 35.1095 21.6623C35.4288 22.111 36.044 22.6352 37.1944 22.7202C36.8328 23.0319 36.4337 23.32 36.0628 23.66C31.0149 28.2125 24.5631 35.9244 25.8919 38.6919C26.0328 38.9846 26.4836 39.6694 27.6575 39.6694C27.9768 39.6694 28.3337 39.6127 28.714 39.4994C29.733 39.2019 32.8274 38.281 39.1619 26.9846C40.0306 25.4404 40.8852 23.83 41.7069 22.1865C43.2142 20.8973 44.6746 19.7875 45.9894 18.9327C45.7593 20.1039 45.8767 21.0201 46.3416 21.6623C46.689 22.1535 47.3887 22.7344 48.7692 22.7344C49.8821 22.7344 50.9997 22.2054 52.1736 21.1145C52.2581 21.3932 52.3802 21.634 52.5445 21.8418C53 22.4227 53.7091 22.7344 54.5871 22.7344C57.6628 22.7344 59.8838 19.9717 61.2691 17.4593C61.4522 18.1251 62.0626 18.3991 62.8797 18.2479C62.8233 18.3943 62.7623 18.5455 62.7059 18.7013C62.2645 19.9197 62.5604 21.0153 63.5136 21.7096C64.1146 22.1488 64.9646 22.3896 65.9084 22.3896C66.4766 22.3896 67.0588 22.3046 67.6458 22.144C68.1388 22.0071 68.6131 21.8182 69.0498 21.5773C69.2799 21.9693 69.8011 22.4274 71.0032 22.4982C71.0032 22.4982 75.4922 22.059 75.7599 17.1192C75.7787 16.7509 75.7129 16.4675 75.5439 16.2834C75.4218 16.1511 75.2528 16.0803 75.0696 16.0803C74.6423 16.0803 74.1634 16.4675 74.0366 16.9823C73.5952 18.843 72.5856 19.6364 71.9564 19.6364C71.8907 19.6364 71.8249 19.5797 71.7545 19.4664C70.9891 13.1334 79.6432 2.02597 79.7512 1.88902C79.9907 1.58205 80.0611 1.20425 79.9484 0.854782ZM28.9253 36.6187C28.2069 36.2786 33.344 29.0767 35.7998 27.4144C33.837 31.7497 29.6015 37.1854 28.9253 36.6187ZM69.0498 17.8512C69.031 17.889 69.0122 17.9315 68.9981 17.974C68.6976 18.8288 67.9181 19.5041 66.9039 19.7875C66.6127 19.8678 66.3216 19.9103 66.0586 19.9103C65.6266 19.9103 65.4482 19.8017 65.3966 19.7686C65.3684 19.7497 65.2886 19.693 65.4153 19.3436C65.8614 18.111 66.4249 17.1476 67.0823 16.4864L67.1433 16.4298C67.519 16.0614 67.9275 15.7922 68.3548 15.6316C68.6976 15.5041 69.0639 15.438 69.4489 15.438C69.51 15.438 69.571 15.438 69.632 15.4427C69.3691 16.3164 69.1766 17.124 69.0498 17.8512Z" fill="white"/>
</svg>
